<?xml version="1.0" encoding="utf-8"?>
<!-- Generator: Adobe Illustrator 19.0.0, SVG Export Plug-In . SVG Version: 6.00 Build 0)  -->
<svg version="1.1" id="Capa_1" xmlns="http://www.w3.org/2000/svg" xmlns:xlink="http://www.w3.org/1999/xlink" x="0px" y="0px"
	 viewBox="-164 42.3 512 512" style="enable-background:new -164 42.3 512 512;" xml:space="preserve">
<style type="text/css">
	.st0{fill:#FFFFFF;}
</style>
<g>
	<g id="Cart">
		<g>
			<path class="st0" d="M347.5,54.6c-2.1-8.6-10.8-13.8-19.4-11.6l-64,16c-6.2,1.6-10.9,6.7-11.9,13l-8.1,51.3L-150,170.5
				c-0.3,0-0.5,0.3-0.9,0.3c-0.4,0.1-0.7,0-1.1,0c-0.9,0.2-1.6,0.8-2.4,1.1c-0.9,0.4-1.8,0.7-2.6,1.2c-1.1,0.8-2,1.8-2.9,2.8
				c-0.5,0.5-1,0.8-1.4,1.3c-0.1,0.1-0.1,0.3-0.2,0.4c-0.9,1.3-1.4,2.8-1.8,4.4c-0.2,0.6-0.5,1-0.6,1.6c-0.3,2.1-0.3,4.3,0.2,6.5
				l48,191.8l16,63.9c0.1,0.5,0.4,0.8,0.6,1.3c0.3,0.8,0.6,1.5,1,2.2c0.5,1,1.2,2,2,2.9c0.5,0.5,1,1.1,1.5,1.6c1,0.8,2,1.5,3.1,2.1
				c0.6,0.3,1.1,0.7,1.7,0.9c1.8,0.7,3.7,1.1,5.7,1.1H252c8.8,0,16-7.1,16-16c0-8.8-7.1-16-16-16H-71.6l-8-32H220c2,0,3.9-0.3,5.6-1
				c0.7-0.3,1.3-0.8,1.9-1.1c1-0.5,2-1,2.9-1.7c0.6-0.5,1-1.2,1.6-1.9c0.7-0.8,1.4-1.5,2-2.4c0.4-0.8,0.6-1.8,0.9-2.7
				c0.3-0.8,0.8-1.6,0.9-2.5l0.1-0.3v-0.2l46.2-292.9L335.9,74C344.5,71.9,349.7,63.2,347.5,54.6z M-87.5,362.2l-40.6-162.1
				l49.6-5.9l24.1,168.1H-87.5z M-22.2,362.2l-24.6-171.9l49.9-6l8.1,177.8H-22.2z M76.7,362.2H43.3L35,180.5l49.8-6L76.7,362.2z
				 M141.9,362.2h-33.1l8.3-191.5l49.6-5.9L141.9,362.2z M206,362.2h-31.9l25.2-201.4l34.1-4.1L206,362.2z M-20,490.1
				c-17.6,0-32,14.3-32,32s14.3,32,32,32c17.7,0,32-14.3,32-32C12,504.5-2.4,490.1-20,490.1z M188,490.1c-17.7,0-32,14.3-32,32
				s14.3,32,32,32c17.6,0,32-14.3,32-32C220,504.5,205.7,490.1,188,490.1z"/>
		</g>
	</g>
</g>
</svg>
